<?xml version="1.0" encoding="utf-8"?>
<!-- Generator: Adobe Illustrator 19.0.0, SVG Export Plug-In . SVG Version: 6.00 Build 0)  -->
<svg version="1.1" id="图层_1" xmlns="http://www.w3.org/2000/svg" xmlns:xlink="http://www.w3.org/1999/xlink" x="0px" y="0px"
	 viewBox="0 0 50 50" style="enable-background:new 0 0 50 50;" xml:space="preserve">
<style type="text/css">
	.st0{fill:#FFFFFF;}
	.st1{fill:url(#XMLID_3_);}
	.st2{fill:url(#XMLID_4_);}
</style>
<g id="XMLID_1_">
	<g id="XMLID_753_">
		<path id="XMLID_14_" class="st0" d="M44,50H6c-3.3,0-6-2.7-6-6V6c0-3.3,2.7-6,6-6h38c3.3,0,6,2.7,6,6v38C50,47.3,47.3,50,44,50z"
			/>
		<linearGradient id="XMLID_3_" gradientUnits="userSpaceOnUse" x1="25" y1="-1.181998e-07" x2="25" y2="50">
			<stop  offset="0" style="stop-color:#DBDBDA"/>
			<stop  offset="1" style="stop-color:#CCCBCB"/>
		</linearGradient>
		<path id="XMLID_11_" class="st1" d="M44,0.7c2.9,0,5.2,2.4,5.2,5.2v38c0,2.9-2.4,5.2-5.2,5.2H6c-2.9,0-5.2-2.4-5.2-5.2V6
			c0-2.9,2.4-5.2,5.2-5.2H44 M44,0H6C2.7,0,0,2.7,0,6v38c0,3.3,2.7,6,6,6h38c3.3,0,6-2.7,6-6V6C50,2.7,47.3,0,44,0L44,0z"/>
	</g>
	<g id="XMLID_727_">
		<g id="XMLID_50_">
			
				<linearGradient id="XMLID_4_" gradientUnits="userSpaceOnUse" x1="26.0516" y1="11.9388" x2="26.0516" y2="34.8731" gradientTransform="matrix(1 0 0 1 -0.718 0.7361)">
				<stop  offset="0" style="stop-color:#61C0A0"/>
				<stop  offset="1" style="stop-color:#42BDC1"/>
			</linearGradient>
			<path id="XMLID_52_" class="st2" d="M41.2,33.2c-0.7,0-1.1-0.4-1.1-1.1v-8h2v-2.2h-2v-3.1c-0.3,0.3-0.6,0.5-0.9,0.7
				c-0.5,0.3-1.2,0.4-1.8,0.4v2h-1.8V24h1.8v8.5c0,2,1.3,3.1,3.4,3.1c0.7,0,1,0,1.4-0.1l0-2.3H41.2z M14.7,12.7l-6.2,0v22.4l6.2,0
				c4.2,0,6.8-1.8,6.8-6.6v-9.1C21.5,14.7,18.9,12.7,14.7,12.7z M18.8,29c0,2.5-2,3.5-4.1,3.5h-3.5V15.4h3.5c2.2,0,4.1,1.2,4.1,3.7
				V29z M30.1,20c-1.6,0-3.1,0.6-3.9,1.8L26,22.2v-1.8h-2.7l0,15l2.7,0V26c0,0-0.3-3.3,2.7-3.3c2,0,2.5,1.9,2.5,3.3v9.4l2.8,0v-9.9
				C34,22,32.7,20,30.1,20z"/>
		</g>
	</g>
</g>
</svg>
